<?xml version="1.0" encoding="UTF-8" standalone="no"?>
<svg width="933px" height="390px" viewBox="0 0 933 390" version="1.1" xmlns="http://www.w3.org/2000/svg" xmlns:xlink="http://www.w3.org/1999/xlink" xmlns:sketch="http://www.bohemiancoding.com/sketch/ns">
    <!-- Generator: Sketch 3.3.3 (12072) - http://www.bohemiancoding.com/sketch -->
    <title>default</title>
    <desc>Created with Sketch.</desc>
    <defs></defs>
    <g id="Page-1" stroke="none" stroke-width="1" fill="none" fill-rule="evenodd" sketch:type="MSPage">
        <g id="lifedrawing" sketch:type="MSLayerGroup" transform="translate(69.000000, 20.000000)">
            <path d="M1.09412479e-12,191 C17.5,227.999993 44.5967631,230.638684 79.7983816,102.819342 C115,-24.9999994 68.7372474,-2.62547429 68.737247,27.349982 C68.7372466,57.3254383 36,221.999993 72.5,211.5 C81.7198495,208.847716 112.835835,147.499152 112.835835,147.499152 C112.835835,147.499152 96.8268922,279.2911 140.5,176.995171 C184.173108,74.6992422 184.987265,7.32869055 162.414116,7.32869094 C139.840966,7.32869133 161.153784,353.596257 112.326894,353.605803 C63.5000031,353.615349 165.986739,186.618363 225,146.706277 C161.5,145.5 154,218.999993 201.784087,212.979654 C276,196 263.13909,134.869695 317.271777,146.906746 C294.773237,129.621822 237.5,209.115273 292.47297,214.445831 C358,212.5 309.346882,-6.2499512 320.271772,0.539369871 C331.196663,7.32869094 323.372779,212.562499 331.413999,214.771079 C339.45522,216.979659 369.966192,136.11545 369.966192,144.342098 C369.966191,152.568746 369.966187,214.115273 369.966187,214.115273 C369.966187,214.115273 369.612616,145.722936 399.682041,143.418937 C429.751465,141.114938 488.242915,138.676546 462.361149,143.087846 C436.479383,147.499146 376.934165,211.986024 413.199102,211.986021 C449.464038,211.986019 466.801821,147.978261 466.801821,147.978261 C466.801821,147.978261 455.442275,206.024424 462.36114,211.986021 C469.280004,217.947619 497.087616,140.816949 497.087616,140.816949 C497.087616,140.816949 478.281425,211.986033 508.4222,211.986021 C538.562976,211.98601 544.998522,139.237448 544.998522,139.237448 C544.998522,139.237448 540.752513,211.986027 568.090689,211.986021 C595.428864,211.986016 590.362145,137.478768 590.362145,137.478768 C590.362145,137.478768 596.677675,157.827254 609.616951,153.906744 C622.556227,149.986234 622.303195,132.755847 622.303195,132.755847 C622.303195,132.755847 597.141518,211.986026 616.723954,211.986021 C636.306391,211.986016 655.729876,132.763637 655.729876,132.763637 L655.72987,211.986021 C655.72987,211.986021 676.077419,133.42972 690.28821,133.429715 C704.499,133.429711 697.567608,211.986021 710.980464,211.986021 C724.39332,211.986021 713.539768,135.381206 742.065171,135.381207 C770.590573,135.381208 763,133.706277 770.405677,134.958785 C720,135.5 742.065186,231.499993 758.215721,209.115267 C774.366256,186.730541 775.761108,133.706277 775.761108,133.706277 C775.761108,133.706277 775.988168,338.999989 742.065186,338.999993 C708.142203,338.999997 813.826303,133.706274 813.826303,133.706274" id="Path-1" stroke="#979797" stroke-width="3" fill-opacity="0" fill="#D8D8D8" sketch:type="MSShapeGroup"></path>
            <path d="M612.860685,120.641797 C619.964462,115.295645 634.567754,105.660886 634.567754,105.660886" id="Path-3" stroke="#979797" stroke-width="3" sketch:type="MSShapeGroup"></path>
            <text id="a-microservice-proto" sketch:type="MSTextLayer" font-family="Helvetica Neue" font-size="13" font-weight="bold" fill="#9B9B9B">
                <tspan x="176" y="233">a microservice prototype that streams large SVG data sets, via web sockets, to the browser</tspan>
            </text>
        </g>
        <path d="M172.5,148.5 L185.5,140.5" id="Line" stroke="#979797" stroke-width="3" fill-opacity="0" fill="#D8D8D8" sketch:type="MSShapeGroup"></path>
    </g>
</svg>